<mxfile host="app.diagrams.net" modified="2021-12-31T10:48:09.196Z" agent="5.0 (Windows NT 10.0; Win64; x64) AppleWebKit/537.36 (KHTML, like Gecko) Chrome/96.0.4664.110 Safari/537.36" etag="Xrf-7q46OT8fE2XRwmph" version="16.0.3" type="github">
  <diagram id="BYA2aRcAJq5v6OB1ltSx" name="Page-1">
    <mxGraphModel dx="1043" dy="571" grid="1" gridSize="10" guides="1" tooltips="1" connect="1" arrows="1" fold="1" page="1" pageScale="1" pageWidth="1169" pageHeight="1654" math="0" shadow="0">
      <root>
        <mxCell id="0" />
        <mxCell id="1" parent="0" />
        <mxCell id="14iGhpF5pFpxHJ2JXWDJ-31" style="rounded=0;orthogonalLoop=1;jettySize=auto;html=1;exitX=0.5;exitY=0.5;exitDx=0;exitDy=0;exitPerimeter=0;entryX=0.5;entryY=1;entryDx=0;entryDy=0;endArrow=none;endFill=0;" edge="1" parent="1" source="14iGhpF5pFpxHJ2JXWDJ-1" target="14iGhpF5pFpxHJ2JXWDJ-18">
          <mxGeometry relative="1" as="geometry" />
        </mxCell>
        <mxCell id="14iGhpF5pFpxHJ2JXWDJ-32" style="edgeStyle=none;rounded=0;orthogonalLoop=1;jettySize=auto;html=1;exitX=0.5;exitY=0.5;exitDx=0;exitDy=0;exitPerimeter=0;entryX=1;entryY=1;entryDx=0;entryDy=0;endArrow=none;endFill=0;" edge="1" parent="1" source="14iGhpF5pFpxHJ2JXWDJ-1" target="14iGhpF5pFpxHJ2JXWDJ-19">
          <mxGeometry relative="1" as="geometry" />
        </mxCell>
        <mxCell id="14iGhpF5pFpxHJ2JXWDJ-33" style="edgeStyle=none;rounded=0;orthogonalLoop=1;jettySize=auto;html=1;exitX=0.5;exitY=0.5;exitDx=0;exitDy=0;exitPerimeter=0;entryX=1;entryY=0.5;entryDx=0;entryDy=0;endArrow=none;endFill=0;" edge="1" parent="1" source="14iGhpF5pFpxHJ2JXWDJ-1" target="14iGhpF5pFpxHJ2JXWDJ-20">
          <mxGeometry relative="1" as="geometry" />
        </mxCell>
        <mxCell id="14iGhpF5pFpxHJ2JXWDJ-34" style="edgeStyle=none;rounded=0;orthogonalLoop=1;jettySize=auto;html=1;exitX=0.5;exitY=0.5;exitDx=0;exitDy=0;exitPerimeter=0;entryX=1;entryY=0.5;entryDx=0;entryDy=0;endArrow=none;endFill=0;" edge="1" parent="1" source="14iGhpF5pFpxHJ2JXWDJ-1" target="14iGhpF5pFpxHJ2JXWDJ-21">
          <mxGeometry relative="1" as="geometry" />
        </mxCell>
        <mxCell id="14iGhpF5pFpxHJ2JXWDJ-35" style="edgeStyle=none;rounded=0;orthogonalLoop=1;jettySize=auto;html=1;exitX=0.5;exitY=0.5;exitDx=0;exitDy=0;exitPerimeter=0;entryX=1;entryY=0.5;entryDx=0;entryDy=0;endArrow=none;endFill=0;" edge="1" parent="1" source="14iGhpF5pFpxHJ2JXWDJ-1" target="14iGhpF5pFpxHJ2JXWDJ-8">
          <mxGeometry relative="1" as="geometry" />
        </mxCell>
        <mxCell id="14iGhpF5pFpxHJ2JXWDJ-36" style="edgeStyle=none;rounded=0;orthogonalLoop=1;jettySize=auto;html=1;exitX=0.5;exitY=0.5;exitDx=0;exitDy=0;exitPerimeter=0;entryX=1;entryY=0.5;entryDx=0;entryDy=0;endArrow=none;endFill=0;" edge="1" parent="1" source="14iGhpF5pFpxHJ2JXWDJ-1" target="14iGhpF5pFpxHJ2JXWDJ-9">
          <mxGeometry relative="1" as="geometry" />
        </mxCell>
        <mxCell id="14iGhpF5pFpxHJ2JXWDJ-37" style="edgeStyle=none;rounded=0;orthogonalLoop=1;jettySize=auto;html=1;exitX=0.5;exitY=0.5;exitDx=0;exitDy=0;exitPerimeter=0;entryX=1;entryY=0.5;entryDx=0;entryDy=0;endArrow=none;endFill=0;" edge="1" parent="1" source="14iGhpF5pFpxHJ2JXWDJ-1" target="14iGhpF5pFpxHJ2JXWDJ-26">
          <mxGeometry relative="1" as="geometry" />
        </mxCell>
        <mxCell id="14iGhpF5pFpxHJ2JXWDJ-38" style="edgeStyle=none;rounded=0;orthogonalLoop=1;jettySize=auto;html=1;exitX=0.5;exitY=0.5;exitDx=0;exitDy=0;exitPerimeter=0;entryX=1;entryY=0.5;entryDx=0;entryDy=0;endArrow=none;endFill=0;" edge="1" parent="1" source="14iGhpF5pFpxHJ2JXWDJ-1" target="14iGhpF5pFpxHJ2JXWDJ-6">
          <mxGeometry relative="1" as="geometry" />
        </mxCell>
        <mxCell id="14iGhpF5pFpxHJ2JXWDJ-39" style="edgeStyle=none;rounded=0;orthogonalLoop=1;jettySize=auto;html=1;exitX=0.5;exitY=0.5;exitDx=0;exitDy=0;exitPerimeter=0;entryX=1;entryY=0.5;entryDx=0;entryDy=0;endArrow=none;endFill=0;" edge="1" parent="1" source="14iGhpF5pFpxHJ2JXWDJ-1" target="14iGhpF5pFpxHJ2JXWDJ-7">
          <mxGeometry relative="1" as="geometry" />
        </mxCell>
        <mxCell id="14iGhpF5pFpxHJ2JXWDJ-1" value="User" style="shape=umlActor;verticalLabelPosition=bottom;verticalAlign=top;html=1;outlineConnect=0;" vertex="1" parent="1">
          <mxGeometry x="1039" y="540" width="30" height="60" as="geometry" />
        </mxCell>
        <mxCell id="14iGhpF5pFpxHJ2JXWDJ-40" style="edgeStyle=none;rounded=0;orthogonalLoop=1;jettySize=auto;html=1;exitX=0.5;exitY=0.5;exitDx=0;exitDy=0;exitPerimeter=0;entryX=1;entryY=0.5;entryDx=0;entryDy=0;endArrow=none;endFill=0;" edge="1" parent="1" source="14iGhpF5pFpxHJ2JXWDJ-2" target="14iGhpF5pFpxHJ2JXWDJ-10">
          <mxGeometry relative="1" as="geometry" />
        </mxCell>
        <mxCell id="14iGhpF5pFpxHJ2JXWDJ-2" value="Restaurant" style="shape=umlActor;verticalLabelPosition=bottom;verticalAlign=top;html=1;outlineConnect=0;" vertex="1" parent="1">
          <mxGeometry x="1039" y="900" width="30" height="60" as="geometry" />
        </mxCell>
        <mxCell id="14iGhpF5pFpxHJ2JXWDJ-5" value="" style="swimlane;startSize=0;" vertex="1" parent="1">
          <mxGeometry x="240" y="160" width="720" height="1040" as="geometry">
            <mxRectangle x="240" y="160" width="50" height="40" as="alternateBounds" />
          </mxGeometry>
        </mxCell>
        <mxCell id="14iGhpF5pFpxHJ2JXWDJ-6" value="Register" style="ellipse;whiteSpace=wrap;html=1;" vertex="1" parent="14iGhpF5pFpxHJ2JXWDJ-5">
          <mxGeometry x="290" y="640" width="140" height="70" as="geometry" />
        </mxCell>
        <mxCell id="14iGhpF5pFpxHJ2JXWDJ-7" value="Login" style="ellipse;whiteSpace=wrap;html=1;" vertex="1" parent="14iGhpF5pFpxHJ2JXWDJ-5">
          <mxGeometry x="290" y="720" width="140" height="70" as="geometry" />
        </mxCell>
        <mxCell id="14iGhpF5pFpxHJ2JXWDJ-8" value="Edit Profile" style="ellipse;whiteSpace=wrap;html=1;" vertex="1" parent="14iGhpF5pFpxHJ2JXWDJ-5">
          <mxGeometry x="290" y="370" width="140" height="70" as="geometry" />
        </mxCell>
        <mxCell id="14iGhpF5pFpxHJ2JXWDJ-9" value="Search Restaurant" style="ellipse;whiteSpace=wrap;html=1;" vertex="1" parent="14iGhpF5pFpxHJ2JXWDJ-5">
          <mxGeometry x="290" y="460" width="140" height="70" as="geometry" />
        </mxCell>
        <mxCell id="14iGhpF5pFpxHJ2JXWDJ-11" value="Edit Timings" style="ellipse;whiteSpace=wrap;html=1;" vertex="1" parent="14iGhpF5pFpxHJ2JXWDJ-5">
          <mxGeometry x="370" y="930" width="140" height="70" as="geometry" />
        </mxCell>
        <mxCell id="14iGhpF5pFpxHJ2JXWDJ-12" value="Edit Location" style="ellipse;whiteSpace=wrap;html=1;" vertex="1" parent="14iGhpF5pFpxHJ2JXWDJ-5">
          <mxGeometry x="205" y="930" width="140" height="70" as="geometry" />
        </mxCell>
        <mxCell id="14iGhpF5pFpxHJ2JXWDJ-13" value="Edit Open/Close" style="ellipse;whiteSpace=wrap;html=1;" vertex="1" parent="14iGhpF5pFpxHJ2JXWDJ-5">
          <mxGeometry x="530" y="930" width="140" height="70" as="geometry" />
        </mxCell>
        <mxCell id="14iGhpF5pFpxHJ2JXWDJ-18" value="Select Item" style="ellipse;whiteSpace=wrap;html=1;" vertex="1" parent="14iGhpF5pFpxHJ2JXWDJ-5">
          <mxGeometry x="538" y="40" width="140" height="70" as="geometry" />
        </mxCell>
        <mxCell id="14iGhpF5pFpxHJ2JXWDJ-19" value="Add Item" style="ellipse;whiteSpace=wrap;html=1;" vertex="1" parent="14iGhpF5pFpxHJ2JXWDJ-5">
          <mxGeometry x="458" y="118" width="140" height="70" as="geometry" />
        </mxCell>
        <mxCell id="14iGhpF5pFpxHJ2JXWDJ-20" value="Remove Item" style="ellipse;whiteSpace=wrap;html=1;" vertex="1" parent="14iGhpF5pFpxHJ2JXWDJ-5">
          <mxGeometry x="379" y="198" width="140" height="70" as="geometry" />
        </mxCell>
        <mxCell id="14iGhpF5pFpxHJ2JXWDJ-21" value="Review Order" style="ellipse;whiteSpace=wrap;html=1;" vertex="1" parent="14iGhpF5pFpxHJ2JXWDJ-5">
          <mxGeometry x="290" y="280" width="140" height="70" as="geometry" />
        </mxCell>
        <mxCell id="14iGhpF5pFpxHJ2JXWDJ-22" value="Calculate Price" style="ellipse;whiteSpace=wrap;html=1;" vertex="1" parent="14iGhpF5pFpxHJ2JXWDJ-5">
          <mxGeometry x="180" y="170" width="140" height="70" as="geometry" />
        </mxCell>
        <mxCell id="14iGhpF5pFpxHJ2JXWDJ-23" value="&amp;lt;&amp;lt;include&amp;gt;&amp;gt;" style="edgeStyle=none;html=1;endArrow=open;verticalAlign=bottom;dashed=1;labelBackgroundColor=none;rounded=0;exitX=0;exitY=0;exitDx=0;exitDy=0;" edge="1" parent="14iGhpF5pFpxHJ2JXWDJ-5" source="14iGhpF5pFpxHJ2JXWDJ-21" target="14iGhpF5pFpxHJ2JXWDJ-22">
          <mxGeometry width="160" relative="1" as="geometry">
            <mxPoint x="300" y="30" as="sourcePoint" />
            <mxPoint x="460" y="30" as="targetPoint" />
          </mxGeometry>
        </mxCell>
        <mxCell id="14iGhpF5pFpxHJ2JXWDJ-24" value="Edit Menu" style="ellipse;whiteSpace=wrap;html=1;" vertex="1" parent="14iGhpF5pFpxHJ2JXWDJ-5">
          <mxGeometry x="50" y="930" width="140" height="70" as="geometry" />
        </mxCell>
        <mxCell id="14iGhpF5pFpxHJ2JXWDJ-26" value="Navigate Menu" style="ellipse;whiteSpace=wrap;html=1;" vertex="1" parent="14iGhpF5pFpxHJ2JXWDJ-5">
          <mxGeometry x="290" y="550" width="140" height="70" as="geometry" />
        </mxCell>
        <mxCell id="14iGhpF5pFpxHJ2JXWDJ-15" value="&amp;lt;&amp;lt;include&amp;gt;&amp;gt;" style="edgeStyle=none;html=1;endArrow=open;verticalAlign=bottom;dashed=1;labelBackgroundColor=none;rounded=0;entryX=0.5;entryY=0;entryDx=0;entryDy=0;startArrow=none;exitX=0.5;exitY=1;exitDx=0;exitDy=0;" edge="1" parent="14iGhpF5pFpxHJ2JXWDJ-5" source="14iGhpF5pFpxHJ2JXWDJ-10" target="14iGhpF5pFpxHJ2JXWDJ-12">
          <mxGeometry width="160" relative="1" as="geometry">
            <mxPoint x="370" y="850" as="sourcePoint" />
            <mxPoint x="530" y="760" as="targetPoint" />
          </mxGeometry>
        </mxCell>
        <mxCell id="14iGhpF5pFpxHJ2JXWDJ-14" value="&amp;lt;&amp;lt;include&amp;gt;&amp;gt;" style="edgeStyle=none;html=1;endArrow=open;verticalAlign=bottom;dashed=1;labelBackgroundColor=none;rounded=0;exitX=0.5;exitY=1;exitDx=0;exitDy=0;entryX=0.5;entryY=0;entryDx=0;entryDy=0;" edge="1" parent="14iGhpF5pFpxHJ2JXWDJ-5" source="14iGhpF5pFpxHJ2JXWDJ-10" target="14iGhpF5pFpxHJ2JXWDJ-11">
          <mxGeometry width="160" relative="1" as="geometry">
            <mxPoint x="390" y="930" as="sourcePoint" />
            <mxPoint x="550" y="930" as="targetPoint" />
          </mxGeometry>
        </mxCell>
        <mxCell id="14iGhpF5pFpxHJ2JXWDJ-16" value="&amp;lt;&amp;lt;include&amp;gt;&amp;gt;" style="edgeStyle=none;html=1;endArrow=open;verticalAlign=bottom;dashed=1;labelBackgroundColor=none;rounded=0;exitX=1;exitY=1;exitDx=0;exitDy=0;entryX=0.5;entryY=0;entryDx=0;entryDy=0;" edge="1" parent="14iGhpF5pFpxHJ2JXWDJ-5" source="14iGhpF5pFpxHJ2JXWDJ-10" target="14iGhpF5pFpxHJ2JXWDJ-13">
          <mxGeometry width="160" relative="1" as="geometry">
            <mxPoint x="547.5025253169433" y="814.2512626584717" as="sourcePoint" />
            <mxPoint x="540" y="770" as="targetPoint" />
          </mxGeometry>
        </mxCell>
        <mxCell id="14iGhpF5pFpxHJ2JXWDJ-25" value="&amp;lt;&amp;lt;include&amp;gt;&amp;gt;" style="edgeStyle=none;html=1;endArrow=open;verticalAlign=bottom;dashed=1;labelBackgroundColor=none;rounded=0;entryX=0.5;entryY=0;entryDx=0;entryDy=0;exitX=0;exitY=1;exitDx=0;exitDy=0;" edge="1" parent="14iGhpF5pFpxHJ2JXWDJ-5" target="14iGhpF5pFpxHJ2JXWDJ-24" source="14iGhpF5pFpxHJ2JXWDJ-10">
          <mxGeometry width="160" relative="1" as="geometry">
            <mxPoint x="320" y="910" as="sourcePoint" />
            <mxPoint x="575" y="836" as="targetPoint" />
          </mxGeometry>
        </mxCell>
        <mxCell id="14iGhpF5pFpxHJ2JXWDJ-10" value="Edit Restaurant &lt;br&gt;Details" style="ellipse;whiteSpace=wrap;html=1;" vertex="1" parent="14iGhpF5pFpxHJ2JXWDJ-5">
          <mxGeometry x="290" y="810" width="140" height="70" as="geometry" />
        </mxCell>
        <mxCell id="14iGhpF5pFpxHJ2JXWDJ-50" value="&lt;font style=&quot;font-size: 18px&quot;&gt;Restaurant Finder&lt;/font&gt;" style="text;html=1;strokeColor=none;fillColor=none;align=center;verticalAlign=middle;whiteSpace=wrap;rounded=0;" vertex="1" parent="14iGhpF5pFpxHJ2JXWDJ-5">
          <mxGeometry x="20" width="180" height="40" as="geometry" />
        </mxCell>
        <mxCell id="14iGhpF5pFpxHJ2JXWDJ-43" style="edgeStyle=none;rounded=0;orthogonalLoop=1;jettySize=auto;html=1;exitX=0.5;exitY=0.5;exitDx=0;exitDy=0;exitPerimeter=0;entryX=0;entryY=0.5;entryDx=0;entryDy=0;endArrow=none;endFill=0;" edge="1" parent="1" source="14iGhpF5pFpxHJ2JXWDJ-42" target="14iGhpF5pFpxHJ2JXWDJ-21">
          <mxGeometry relative="1" as="geometry" />
        </mxCell>
        <mxCell id="14iGhpF5pFpxHJ2JXWDJ-44" style="edgeStyle=none;rounded=0;orthogonalLoop=1;jettySize=auto;html=1;exitX=0.5;exitY=0.5;exitDx=0;exitDy=0;exitPerimeter=0;entryX=0;entryY=0.5;entryDx=0;entryDy=0;endArrow=none;endFill=0;" edge="1" parent="1" source="14iGhpF5pFpxHJ2JXWDJ-42" target="14iGhpF5pFpxHJ2JXWDJ-8">
          <mxGeometry relative="1" as="geometry" />
        </mxCell>
        <mxCell id="14iGhpF5pFpxHJ2JXWDJ-45" style="edgeStyle=none;rounded=0;orthogonalLoop=1;jettySize=auto;html=1;exitX=0.5;exitY=0.5;exitDx=0;exitDy=0;exitPerimeter=0;entryX=0;entryY=0.5;entryDx=0;entryDy=0;endArrow=none;endFill=0;" edge="1" parent="1" source="14iGhpF5pFpxHJ2JXWDJ-42" target="14iGhpF5pFpxHJ2JXWDJ-9">
          <mxGeometry relative="1" as="geometry" />
        </mxCell>
        <mxCell id="14iGhpF5pFpxHJ2JXWDJ-46" style="edgeStyle=none;rounded=0;orthogonalLoop=1;jettySize=auto;html=1;exitX=0.5;exitY=0.5;exitDx=0;exitDy=0;exitPerimeter=0;entryX=0;entryY=0.5;entryDx=0;entryDy=0;endArrow=none;endFill=0;" edge="1" parent="1" source="14iGhpF5pFpxHJ2JXWDJ-42" target="14iGhpF5pFpxHJ2JXWDJ-26">
          <mxGeometry relative="1" as="geometry" />
        </mxCell>
        <mxCell id="14iGhpF5pFpxHJ2JXWDJ-47" style="edgeStyle=none;rounded=0;orthogonalLoop=1;jettySize=auto;html=1;exitX=0.5;exitY=0.5;exitDx=0;exitDy=0;exitPerimeter=0;entryX=0;entryY=0.5;entryDx=0;entryDy=0;endArrow=none;endFill=0;" edge="1" parent="1" source="14iGhpF5pFpxHJ2JXWDJ-42" target="14iGhpF5pFpxHJ2JXWDJ-6">
          <mxGeometry relative="1" as="geometry" />
        </mxCell>
        <mxCell id="14iGhpF5pFpxHJ2JXWDJ-48" style="edgeStyle=none;rounded=0;orthogonalLoop=1;jettySize=auto;html=1;exitX=0.5;exitY=0.5;exitDx=0;exitDy=0;exitPerimeter=0;entryX=0;entryY=0.5;entryDx=0;entryDy=0;endArrow=none;endFill=0;" edge="1" parent="1" source="14iGhpF5pFpxHJ2JXWDJ-42" target="14iGhpF5pFpxHJ2JXWDJ-7">
          <mxGeometry relative="1" as="geometry" />
        </mxCell>
        <mxCell id="14iGhpF5pFpxHJ2JXWDJ-49" style="edgeStyle=none;rounded=0;orthogonalLoop=1;jettySize=auto;html=1;exitX=0.5;exitY=0.5;exitDx=0;exitDy=0;exitPerimeter=0;entryX=0;entryY=0.5;entryDx=0;entryDy=0;endArrow=none;endFill=0;" edge="1" parent="1" source="14iGhpF5pFpxHJ2JXWDJ-42" target="14iGhpF5pFpxHJ2JXWDJ-10">
          <mxGeometry relative="1" as="geometry" />
        </mxCell>
        <mxCell id="14iGhpF5pFpxHJ2JXWDJ-42" value="Admin" style="shape=umlActor;verticalLabelPosition=bottom;verticalAlign=top;html=1;outlineConnect=0;" vertex="1" parent="1">
          <mxGeometry x="130" y="650" width="30" height="60" as="geometry" />
        </mxCell>
      </root>
    </mxGraphModel>
  </diagram>
</mxfile>
